<svg version="1.2" xmlns="http://www.w3.org/2000/svg" viewBox="0 0 672 597" width="672" height="597">
	<title>MainLogo</title>
	<style>
		tspan { white-space:pre } 
		.s0 { fill: #000000;stroke: #5e07cd;stroke-width: 12 } 
		.t1 { font-size: 35px;fill: #ff0896;font-weight: 400;font-family: "DejaVuSans", "DejaVu Sans" } 
		.s2 { fill: #00caff } 
		.s3 { fill: #000000 } 
	</style>
	<path fill-rule="evenodd" class="s0" d="m325 507c-121.1 0-219-97.9-219-219 0-121.1 97.9-219 219-219 121.1 0 219 97.9 219 219 0 121.1-97.9 219-219 219z"/>
	<text id="" style="transform: matrix(1,0,0,1,106,69)" >
	</text>
	<text id="ADITYA SAPUTRA" style="transform: matrix(1,0,0,1,331,374)" >
		<tspan x="-62.6" y="0" class="t1">A</tspan><tspan  y="0" class="t1">D</tspan><tspan  y="0" class="t1">I</tspan><tspan  y="0" class="t1">T</tspan><tspan  y="0" class="t1">Y</tspan><tspan  y="0" class="t1">A</tspan><tspan  y="0" class="t1">
</tspan>
		<tspan x="-80.9" y="42" class="t1">S</tspan><tspan  y="42" class="t1">A</tspan><tspan  y="42" class="t1">P</tspan><tspan  y="42" class="t1">U</tspan><tspan  y="42" class="t1">T</tspan><tspan  y="42" class="t1">R</tspan><tspan  y="42" class="t1">A</tspan><tspan  y="42" class="t1">
</tspan>
	</text>
	<path class="s2" d="m377.5 306.1c13.1-7.3 15.7-28.8 9.1-57 27.7-7.2 45.2-19.7 45.9-34.6-0.1-3.6-1-6.8-2.9-10.3-5.8-10.4-21.2-20.1-42.1-26.7 5.4-21.2 5.7-38.7-0.5-49.8-1.9-3.5-4.1-5.9-7.1-7.9-12.7-6.6-32.5 1.7-53.7 20.7-20-19.8-40.7-29.3-53.2-22.4-13.1 7.4-15.7 28.8-9.1 57-27.3 7.9-45.5 20.8-45.5 35.4 0.1 3.5 1 6.7 2.9 10.2 5.8 10.4 21.2 20.1 42.1 26.7-5.4 21.2-5.7 38.7 0.5 49.8 1.9 3.5 4.2 5.9 7.1 7.9 12.4 7.7 32.9-1 54.1-20 19.6 19.1 39.9 27.9 52.4 21zm43.1-96.9c1.1 2.1 1.9 3.5 0.9 5 0.3 7.1-9.6 15.3-25.3 21.3-3.8 1.3-8.4 2.9-12.2 4.1-2.2-8.8-5.7-16.9-9.4-26.7 4.2-8.7 7.7-17 10.2-25.7 18.7 6 31.5 14.4 35.8 22zm-95.6 36.7c-6.4-0.1-12.7-0.1-18.8-1.3-3.8-5.2-6.9-10.8-10-16.3-3.1-5.6-6.2-11.2-8.6-17.1 2.6-5.1 5.9-10.6 8.8-16.8 3.3-5.4 6.6-10.9 10.3-15.7 6-0.6 12.4-0.5 18.8-0.4 6.4 0.1 13.1 0.9 19.5 1 3.8 5.1 6.9 10.7 10 16.3 3.1 5.5 6.2 11.1 8.6 17.1-2.6 5.1-5.5 11.2-9.5 17.1-3.3 5.5-6.6 10.9-10.3 15.7-6 0.6-12.4 0.5-18.8 0.4zm11.2 10.3c-3.7 4.7-7.8 8.8-11.2 12.5-4.1-4.1-7.5-8.6-10.9-13.1 3.6-0.1 7.5 0.4 11 0.3 3.3 0.9 7.5 0.4 11.1 0.3zm-60.8-16.4c1.6-5.4 3.8-11.2 6.4-16.3 1.9 3.5 3.8 7 5.4 9.8 1.9 3.4 3.9 6.9 5.4 9.7-5.7-0.5-11.8-1.6-17.2-3.2zm6.3-40.8c-2-5.3-4-10.6-5.3-16.2 5.6-1.3 11.6-1.9 16.5-2.8-2 2.9-4 5.8-5.6 9.5-1.6 3.6-3.6 6.5-5.6 9.5zm32.7-30.9c3.6-4.8 7.7-8.9 11.4-13.7 4.1 4.1 7.5 8.6 11.3 13.8-4-0.6-7.5-0.4-11.4-1-3.9 1.3-7.4 1.4-11.3 0.9zm60.7 16.3c-1.5 5.4-4.2 10.5-5.7 15.9-1.9-3.5-3.5-6.2-5.4-9.7-1.9-3.5-3.5-6.3-5.4-9.8 5.4 1.6 11.5 2.8 16.5 3.6zm-11.9 50.4c1.6-3.7 3.6-6.6 5.2-10.2 2.4 5.9 4.4 11.2 5.7 16.8-5.6 1.3-11.6 1.9-17.6 2.5 2.4-2.2 4.4-5.1 6.7-9.1zm-19.3-95c13.4-10.2 24.9-13.9 31.5-10.2 1.5 1 2.9 2 3.7 3.4 4.3 7.7 4.2 22.2-0.6 41.3-8.2-1.8-17.5-3.9-27.2-4.9-5.3-8-11.3-15.6-17.7-22.1 3.1-2.6 6.9-5.6 10.3-7.5zm-72.1 20c-1.9-16.3 0.7-29.5 6.3-32.6 6.2-3.5 17.8 1 30.6 11.2 3.4 2.7 6.7 5.4 9.7 9.2-6.5 6.3-12.5 13.3-17.8 21.7-9.6 0.8-18.7 2.2-26.8 4-0.9-5-1.5-9.2-2-13.5zm-43.5 50.6c-0.3-7.1 9.6-15.3 25.3-21.3 3.8-1.2 8.4-2.9 12.9-4.5 2.9 8.5 5.8 16.9 9.7 25.6-4.2 8.7-7.3 17.8-10.2 25.7-18.7-6-31.1-13.7-35.4-21.3-1.4-1-1.5-2.8-2.3-4.2zm78.7 74.7c-13.4 10.2-24.9 13.9-31.5 10.2-1.5-1-2.9-2-3.7-3.4-4.3-7.6-4.2-22.2 0.6-41.3 8.6 2.5 17.5 3.9 27.2 4.9 5.3 8 11.3 15.6 16.6 21.8q-3.6 3.3-9.2 7.8zm34.8 0.7c-3.3-2.7-6.7-5.4-9.7-9.2 5.8-5.9 11.8-12.9 17.5-20.6 9.6-0.8 18.7-2.2 27.9-3.7 0.5 4.3 2.2 8.8 2.7 13.1 1.8 16.3-0.4 28.5-6.7 31.9-6.6 2.8-18.8-1.3-31.7-11.5z"/>
	<path class="s3" d="m308.3 222.4c5.5 9.8 17.3 13.2 27 7.8 9.7-5.4 13.1-17.3 7.6-27-5.4-9.8-17.2-13.2-26.9-7.8-9.7 5.4-13.1 17.3-7.7 27z"/>
</svg>